<?xml version="1.0" encoding="utf-8"?>
<svg viewBox="0 0 208 50" width="200px" height="100px" xmlns="http://www.w3.org/2000/svg">
  <g transform="matrix(0.25, 0, 0, 0.25, 34.456367, -10.450912)">
    <path fill="#BE2BBB" d="M -90.976 200.886 C -91.821 202.63 -93.617 203.753 -95.551 203.753 C -96.324 203.753 -97.069 203.582 -97.766 203.241 C -113.714 195.511 -122.139 181.889 -122.139 163.843 L -122.139 143.461 C -122.139 140.657 -119.86 138.378 -117.057 138.378 C -114.255 138.378 -111.974 140.657 -111.974 143.461 L -111.974 163.842 C -111.974 177.918 -105.703 188.096 -93.33 194.098 C -90.811 195.322 -89.753 198.367 -90.976 200.886 Z M -106.015 153.647 C -106.015 156.529 -103.679 158.863 -100.8 158.863 C -97.919 158.863 -95.583 156.529 -95.583 153.647 L -95.583 112.055 C -95.583 109.172 -97.918 106.839 -100.8 106.839 C -103.679 106.839 -106.015 109.172 -106.015 112.055 L -106.015 153.647 Z M -89.878 152.438 C -89.878 155.318 -87.543 157.653 -84.664 157.653 C -81.783 157.653 -79.448 155.318 -79.448 152.438 L -79.448 96.517 C -79.448 93.636 -81.783 91.305 -84.664 91.305 C -87.543 91.305 -89.878 93.636 -89.878 96.517 L -89.878 152.438 Z M -73.742 156.286 C -73.742 159.167 -71.407 161.5 -68.528 161.5 C -65.646 161.5 -63.311 159.167 -63.311 156.286 L -63.311 106.086 C -63.311 103.205 -65.646 100.87 -68.528 100.87 C -71.407 100.87 -73.742 103.205 -73.742 106.086 L -73.742 156.286 L -73.742 156.286 Z M -57.606 162.93 C -57.606 165.725 -55.341 167.989 -52.548 167.989 C -49.754 167.989 -47.489 165.725 -47.489 162.93 L -47.489 129.003 C -47.489 126.208 -49.754 123.943 -52.548 123.943 C -55.341 123.943 -57.606 126.208 -57.606 129.003 L -57.606 162.93 L -57.606 162.93 Z"/>
    <path fill="#595454" d="M 6.519 153.348 L 6.528 153.035 C 13.092 150.779 17.161 146.831 17.161 139.784 L 17.161 138.702 C 17.161 130.611 10.582 123.955 -2.834 123.955 L -21.392 123.955 L -21.392 187.103 L -1.487 187.103 C 11.552 187.103 20.503 180.548 20.503 170.054 L 20.503 169.425 C 20.504 161.238 15.683 155.242 6.519 153.348 Z M -13.272 131.082 L -3.993 131.082 C 4.852 131.082 9.362 134.431 9.362 140.43 L 9.362 141.064 C 9.362 148.306 3.102 150.626 -5.123 150.626 L -13.272 150.626 L -13.272 131.082 Z M 12.185 169.33 C 12.185 177.143 6.03 180.065 -2.951 180.065 L -13.272 180.065 L -13.272 157.302 L -2.805 157.302 C 6.036 157.302 12.185 160.24 12.185 168.337 L 12.185 169.33 L 12.185 169.33 Z M 47.041 139.291 L 49.386 139.291 L 49.386 146.688 L 47.492 146.688 C 39.912 146.688 34.95 150.476 34.95 160.493 L 34.95 187.102 L 27.376 187.102 L 27.376 139.291 L 34.95 139.291 L 34.95 147.862 L 35.312 147.862 C 36.665 143.534 40.185 139.291 47.041 139.291 Z M 56.128 139.291 L 63.708 139.291 L 63.708 187.104 L 56.128 187.104 L 56.128 139.291 Z M 64.539 128.565 C 64.539 132.258 62.858 133.988 59.916 133.988 C 56.973 133.988 55.29 132.258 55.29 128.565 C 55.29 124.873 56.973 123.037 59.916 123.037 C 62.859 123.037 64.539 124.872 64.539 128.565 Z M 105.742 173.932 C 105.742 183.135 98.884 188.004 88.872 188.004 C 78.768 188.004 72.092 183.674 71.551 173.932 L 79.13 173.932 C 79.4 179.797 83.729 181.692 88.872 181.692 C 94.013 181.692 98.163 179.436 98.163 174.471 C 98.163 162.836 72.092 170.867 72.092 152.014 C 72.092 144.16 77.866 138.388 88.42 138.388 C 98.075 138.388 104.48 143.17 105.202 152.462 L 97.623 152.462 C 97.172 146.868 93.293 144.703 88.42 144.703 C 82.917 144.703 79.49 147.229 79.49 152.015 C 79.489 163.288 105.742 156.341 105.742 173.932 Z M 123.224 139.291 L 133.509 139.291 L 133.509 145.967 L 123.224 145.967 L 123.224 172.397 C 123.224 179.344 125.031 180.787 129.63 180.787 C 130.892 180.787 132.336 180.606 133.509 180.516 L 133.509 187.014 C 132.067 187.284 130.171 187.463 128.819 187.463 C 119.437 187.463 115.649 183.764 115.649 173.567 L 115.649 145.967 L 107.619 145.967 L 107.619 139.291 L 115.649 139.291 L 115.649 123.956 L 123.224 123.956 L 123.224 139.291 L 123.224 139.291 Z M 155.894 138.388 C 144.074 138.388 137.76 146.509 137.76 159.679 L 137.76 166.716 C 137.76 179.886 144.073 188.005 155.894 188.005 C 167.709 188.005 174.023 179.886 174.023 166.716 L 174.023 159.679 C 174.023 146.509 167.71 138.388 155.894 138.388 Z M 166.358 166.264 C 166.358 177.631 162.388 181.329 155.894 181.329 C 149.397 181.329 145.431 177.631 145.431 166.264 L 145.431 160.129 C 145.431 148.762 149.398 145.064 155.894 145.064 C 162.388 145.064 166.358 148.762 166.358 160.129 L 166.358 166.264 Z M 182.033 123.956 L 189.613 123.956 L 189.613 187.101 L 182.033 187.101 L 182.033 123.956 Z M 262.705 123.956 L 275.566 123.956 L 275.566 187.104 L 267.537 187.104 L 267.537 132.708 L 267.087 132.708 L 250.937 176.649 L 241.103 176.649 L 225.14 132.708 L 224.689 132.708 L 224.689 187.104 L 216.751 187.104 L 216.751 123.956 L 230.24 123.956 L 246.158 167.819 L 246.611 167.819 L 262.705 123.956 Z M 312.417 139.291 L 320.085 139.291 L 298.886 202.438 L 291.038 202.438 L 296.361 187.461 L 280.841 139.289 L 288.872 139.289 L 300.328 176.549 L 300.689 176.549 L 312.417 139.291 Z M 340.443 138.388 C 328.628 138.388 322.312 146.867 322.312 159.679 L 322.312 166.716 C 322.312 179.886 328.627 188.005 340.443 188.005 C 349.917 188.005 355.507 182.773 357.402 173.843 L 349.645 173.843 C 348.292 179.345 345.224 181.33 340.443 181.33 C 333.951 181.33 329.98 177.632 329.98 166.265 L 329.98 165.634 L 357.672 165.634 L 357.672 159.679 C 357.673 146.868 352.264 138.388 340.443 138.388 Z M 340.443 145.065 C 346.583 145.065 349.907 148.679 349.999 159.679 L 329.993 159.679 C 330.097 148.679 334.04 145.065 340.443 145.065 Z M 385.769 139.291 L 388.113 139.291 L 388.113 146.688 L 386.219 146.688 C 378.643 146.688 373.681 150.476 373.681 160.493 L 373.681 187.102 L 366.103 187.102 L 366.103 139.291 L 373.681 139.291 L 373.681 147.862 L 374.042 147.862 C 375.393 143.534 378.914 139.291 385.769 139.291 Z M 426.363 173.932 C 426.363 183.135 419.509 188.004 409.492 188.004 C 399.388 188.004 392.718 183.674 392.172 173.932 L 399.751 173.932 C 400.022 179.797 404.354 181.692 409.492 181.692 C 414.634 181.692 418.784 179.436 418.784 174.471 C 418.784 162.836 392.718 170.867 392.718 152.014 C 392.718 144.16 398.491 138.388 409.043 138.388 C 418.693 138.388 425.104 143.17 425.822 152.462 L 418.243 152.462 C 417.795 146.868 413.916 144.703 409.043 144.703 C 403.539 144.703 400.113 147.229 400.113 152.015 C 400.113 163.288 426.363 156.341 426.363 173.932 Z M 486.59 170.412 C 486.59 181.69 478.833 188.005 466.922 188.005 C 455.736 188.005 446.535 182.593 445.364 170.505 L 453.751 170.505 C 454.745 177.632 459.798 180.968 466.831 180.968 C 474.863 180.968 478.472 176.187 478.472 170.867 C 478.472 152.911 446.358 163.288 446.358 139.743 C 446.358 129.64 454.386 123.055 465.573 123.055 C 476.394 123.055 485.418 128.376 485.962 140.826 L 477.568 140.826 C 476.848 133.158 471.977 130.091 465.484 130.091 C 457.813 130.091 454.475 134.603 454.475 139.381 C 454.475 155.259 486.59 145.876 486.59 170.412 Z M 520.829 145.065 L 520.458 145.065 C 518.412 140.845 514.52 138.389 509.552 138.389 C 497.733 138.389 492.322 146.51 492.322 159.681 L 492.322 166.716 C 492.322 179.888 497.733 188.005 509.552 188.005 C 514.52 188.005 518.414 185.55 520.458 181.331 L 520.829 181.331 L 520.829 187.104 L 520.829 202.44 L 528.408 202.44 L 528.408 139.291 L 520.829 139.291 L 520.829 145.065 Z M 510.453 181.33 C 503.961 181.33 499.988 177.632 499.988 166.265 L 499.988 160.13 C 499.988 148.763 503.961 145.065 510.453 145.065 C 516.947 145.065 520.92 148.763 520.92 160.13 L 520.92 166.265 C 520.92 177.632 516.947 181.33 510.453 181.33 Z M 563.209 139.291 L 570.789 139.291 L 570.789 187.104 L 563.209 187.104 L 563.209 180.967 L 562.85 180.967 C 561.044 184.846 557.165 188.004 551.123 188.004 C 542.193 188.004 536.686 182.95 536.686 171.674 L 536.686 139.291 L 544.357 139.291 L 544.357 170.595 C 544.357 178.263 547.515 181.601 553.199 181.601 C 558.699 181.601 563.209 177.902 563.209 168.611 L 563.209 139.291 Z M 580.519 139.291 L 588.094 139.291 L 588.094 187.104 L 580.519 187.104 L 580.519 139.291 Z M 617.111 138.388 C 612.07 138.388 608.225 140.844 606.199 145.064 L 605.837 145.064 L 605.837 139.291 L 605.837 123.956 L 598.261 123.956 L 598.261 187.104 L 605.837 187.104 L 605.837 181.331 L 606.199 181.331 C 608.225 185.55 612.07 188.005 617.111 188.005 C 628.928 188.005 634.34 179.888 634.34 166.716 L 634.34 159.681 C 634.341 146.509 628.93 138.388 617.111 138.388 Z M 626.676 166.264 C 626.676 177.631 622.706 181.329 616.213 181.329 C 609.715 181.329 605.749 177.631 605.749 166.264 L 605.749 160.129 C 605.749 148.762 609.715 145.064 616.213 145.064 C 622.706 145.064 626.676 148.762 626.676 160.129 L 626.676 166.264 Z M 660.633 138.388 C 655.587 138.388 651.744 140.844 649.716 145.064 L 649.355 145.064 L 649.355 139.291 L 649.355 123.956 L 641.782 123.956 L 641.782 187.104 L 649.355 187.104 L 649.355 181.331 L 649.716 181.331 C 651.744 185.55 655.587 188.005 660.633 188.005 C 672.449 188.005 677.862 179.888 677.862 166.716 L 677.862 159.681 C 677.861 146.509 672.449 138.388 660.633 138.388 Z M 670.195 166.264 C 670.195 177.631 666.225 181.329 659.727 181.329 C 653.236 181.329 649.264 177.631 649.264 166.264 L 649.264 160.129 C 649.264 148.762 653.236 145.064 659.727 145.064 C 666.225 145.064 670.195 148.762 670.195 160.129 L 670.195 166.264 Z M 588.93 128.565 C 588.93 132.258 587.247 133.988 584.307 133.988 C 581.369 133.988 579.684 132.258 579.684 128.565 C 579.684 124.873 581.369 123.037 584.307 123.037 C 587.247 123.037 588.93 124.872 588.93 128.565 Z"/>
  </g>
</svg>