<svg xmlns="http://www.w3.org/2000/svg" xmlns:xlink="http://www.w3.org/1999/xlink" preserveAspectRatio="xMidYMid" width="1210.699" height="299.907" viewBox="0 0 4812 1192">
  <defs>
    <style>
      .square {
        fill: #214fb8;
        stroke: #214fb8;
      }

      .text {
        fill: black;
        fill-rule: evenodd;
      }

      /* NOTE: we want our manual approach with a parent .dark-mode class
            @media (prefers-color-scheme: dark) {
              .text {
                fill: white;
              }
            } */

      .dark-mode .text {
        fill: white;
      }
    </style>
  </defs>
  <rect x="4424" y="509" width="387" height="387" class="square"/>
  <path d="M4128.516,852.420 C4130.134,879.635 4132.170,902.568 4134.607,921.237 L4011.575,921.237 C4010.757,916.365 4010.148,909.057 4009.748,899.313 C4009.329,889.569 4009.139,880.244 4009.139,871.299 C4009.139,863.192 4009.329,854.247 4009.748,844.503 C4010.148,834.759 4010.757,825.434 4011.575,816.489 L4009.139,816.489 C3988.012,853.029 3960.204,881.253 3925.697,901.140 C3891.170,921.047 3848.345,930.981 3797.184,930.981 C3733.841,930.981 3682.470,914.139 3643.090,880.434 C3603.691,846.749 3584.010,800.256 3584.010,740.973 C3584.010,675.201 3612.027,624.864 3668.062,589.941 C3724.096,555.038 3804.492,537.567 3909.252,537.567 C3922.233,537.567 3936.660,537.777 3952.496,538.176 C3968.331,538.595 3983.139,539.604 3996.957,541.221 C3996.957,440.546 3946.196,390.189 3844.691,390.189 C3812.201,390.189 3779.521,395.480 3746.631,406.023 C3713.742,416.586 3684.297,430.383 3658.317,447.435 L3652.226,332.943 C3683.079,315.891 3717.586,303.312 3755.767,295.185 C3793.929,287.078 3831.291,283.005 3867.835,283.005 C3914.924,283.005 3955.122,289.095 3988.431,301.275 C4021.720,313.455 4048.728,330.508 4069.436,352.431 C4090.145,374.355 4105.162,400.752 4114.507,431.601 C4123.834,462.470 4128.516,496.574 4128.516,533.913 C4128.516,560.709 4128.097,589.542 4127.298,620.391 C4126.479,651.260 4126.080,678.056 4126.080,700.779 L4126.080,766.551 C4126.080,796.602 4126.879,825.225 4128.516,852.420 ZM3973.813,627.090 C3964.068,626.691 3953.105,626.481 3940.923,626.481 C3869.453,626.481 3815.855,635.007 3780.130,652.059 C3744.385,669.111 3726.532,697.125 3726.532,736.101 C3726.532,765.333 3736.068,787.866 3755.158,803.700 C3774.229,819.534 3800.419,827.451 3833.728,827.451 C3884.889,827.451 3925.278,811.427 3954.932,779.340 C3984.567,747.273 3999.394,697.125 3999.394,628.917 C3992.085,628.118 3983.558,627.509 3973.813,627.090 ZM3386.672,406.023 C3332.255,406.023 3290.629,426.939 3261.813,468.750 C3232.977,510.581 3218.569,572.090 3218.569,653.277 L3218.569,921.237 L3078.484,921.237 L3078.484,482.757 C3078.484,449.472 3078.065,416.795 3077.266,384.708 C3076.447,352.641 3074.830,323.618 3072.393,297.621 L3206.388,297.621 C3208.006,312.237 3209.224,330.508 3210.042,352.431 C3210.842,374.355 3211.260,393.444 3211.260,409.677 L3213.697,409.677 C3230.751,370.701 3253.476,339.852 3281.912,317.109 C3310.329,294.386 3345.655,283.005 3387.890,283.005 C3399.253,283.005 3409.397,283.424 3418.343,284.224 C3427.270,285.042 3436.196,287.078 3445.142,290.313 L3445.142,414.549 C3430.524,408.878 3411.034,406.023 3386.672,406.023 ZM2702.084,921.237 L2560.780,750.717 C2542.090,727.994 2522.200,702.606 2501.092,674.592 C2479.965,646.578 2461.293,621.609 2445.058,599.685 L2442.622,599.685 L2442.622,921.237 L2301.318,921.237 L2301.318,0.429 L2442.622,0.429 L2442.622,561.927 L2445.058,561.927 C2459.675,543.258 2478.138,520.725 2500.483,494.328 C2522.809,467.951 2543.727,444.200 2563.217,423.075 L2680.158,297.621 L2850.696,297.621 L2577.834,572.889 L2882.368,921.237 L2702.084,921.237 ZM1876.207,616.737 C1876.207,586.706 1875.179,558.273 1873.162,531.477 C1871.125,504.681 1865.853,481.349 1857.326,461.442 C1848.799,441.555 1836.009,425.721 1818.955,413.940 C1801.901,402.179 1778.338,396.279 1748.303,396.279 C1719.867,396.279 1693.278,404.006 1668.515,419.421 C1643.734,434.856 1624.053,455.562 1609.436,481.539 C1600.490,498.591 1593.600,519.297 1588.727,543.657 C1583.855,568.017 1581.419,597.249 1581.419,631.353 L1581.419,921.237 L1443.770,921.237 L1443.770,486.411 C1443.770,454.743 1443.351,422.885 1442.552,390.798 C1441.733,358.731 1440.115,327.672 1437.679,297.621 L1571.674,297.621 C1573.292,311.438 1574.510,327.881 1575.328,346.950 C1576.128,366.039 1576.546,383.700 1576.546,399.934 L1578.983,399.934 C1602.527,363.393 1631.553,334.770 1666.079,314.064 C1700.587,293.358 1740.576,283.005 1786.065,283.005 C1829.100,283.005 1865.244,289.704 1894.479,303.102 C1923.714,316.500 1947.259,335.379 1965.131,359.739 C1982.984,384.099 1995.774,413.331 2003.502,447.435 C2011.210,481.539 2015.074,519.297 2015.074,560.709 L2015.074,921.237 L1876.207,921.237 L1876.207,616.737 ZM957.136,1050.954 C940.481,1082.204 922.209,1108.391 902.319,1129.515 C882.411,1150.621 859.875,1166.246 834.713,1176.408 C809.532,1186.552 780.297,1191.633 747.007,1191.633 C732.390,1191.633 716.554,1190.415 699.500,1187.979 C682.446,1185.543 667.010,1182.289 653.211,1178.235 L662.956,1071.051 C684.883,1078.359 707.609,1082.013 731.172,1082.013 C761.206,1082.013 785.779,1072.269 804.869,1052.781 C823.940,1033.293 841.603,998.371 857.858,948.033 L617.885,297.621 L770.152,297.621 L870.039,599.685 C878.966,625.682 889.110,657.750 900.492,695.907 C911.855,734.084 922.419,771.842 932.164,809.181 L934.600,809.181 C937.836,798.638 942.099,784.422 947.390,766.551 C952.663,748.700 958.354,729.612 964.444,709.305 C970.535,689.018 976.416,669.111 982.107,649.623 C987.779,630.135 993.070,613.502 997.943,599.685 L1099.048,297.621 L1239.133,297.621 L1005.252,939.507 C989.816,982.537 973.771,1019.686 957.136,1050.954 ZM330.424,929.763 C280.880,929.763 235.809,922.246 195.211,907.230 C154.594,892.215 119.877,870.690 91.061,842.676 C62.225,814.662 39.899,781.167 24.063,742.191 C8.228,703.215 0.310,659.367 0.310,610.647 C0.310,561.927 8.627,517.889 25.282,478.494 C41.917,439.119 65.061,405.414 94.715,377.401 C124.350,349.386 159.276,327.672 199.475,312.237 C239.673,296.822 283.716,289.095 331.642,289.095 C381.167,289.095 425.020,296.004 463.200,309.801 L453.455,423.075 C421.784,407.660 386.039,399.934 346.260,399.934 C315.387,399.934 287.580,405.224 262.817,415.767 C238.036,426.330 217.137,440.736 200.084,459.006 C183.030,477.276 170.030,499.010 161.103,524.169 C152.158,549.348 147.704,576.962 147.704,606.993 C147.704,637.862 151.967,666.066 160.494,691.644 C169.021,717.222 181.811,739.356 198.865,758.025 C215.919,776.714 236.818,791.330 261.599,801.873 C286.362,812.436 314.588,817.707 346.260,817.707 C367.367,817.707 387.067,815.690 405.339,811.617 C423.611,807.564 443.292,800.655 464.419,790.911 L472.945,906.621 C431.529,922.037 384.022,929.763 330.424,929.763 Z" class="text"/>
</svg>
