<?xml version="1.0" encoding="utf-8"?>
<svg data-name="Layer 1" width="896" height="747.97143" viewBox="0 0 1030 859.925" xmlns="http://www.w3.org/2000/svg">
  <title>empty_cart</title>
  <path d="M 116.28 762.661 C 128.708 785.71 155.086 795.604 155.086 795.604 C 155.086 795.604 161.313 768.129 148.885 745.08 C 136.456 722.031 110.079 712.136 110.079 712.136 C 110.079 712.136 103.852 739.612 116.28 762.661 Z" fill="#2f2e41"/>
  <path d="M 124.822 755.078 C 147.261 768.577 155.903 795.391 155.903 795.391 C 155.903 795.391 128.165 800.318 105.726 786.818 C 83.288 773.319 74.646 746.505 74.646 746.505 C 74.646 746.505 102.384 741.578 124.822 755.078 Z" fill="#6c63ff"/>
  <rect x="657.894" y="163.83" width="2" height="18.5" fill="#f2f2f2"/>
  <rect x="782.894" y="208.83" width="2" height="18.5" fill="#f2f2f2"/>
  <rect x="768.894" y="672.83" width="2" height="18.5" fill="#f2f2f2"/>
  <rect x="797.894" y="519.83" width="2" height="18.5" fill="#f2f2f2"/>
  <polygon points="436.706 752.107 199.92 752.107 199.92 750.404 435.002 750.404 435.002 667.784 219.826 667.784 209.373 646.007 210.909 645.27 220.898 666.08 436.706 666.08 436.706 752.107" fill="#2f2e41"/>
  <circle cx="231.434" cy="775.956" r="17.887" fill="#3f3d56"/>
  <circle cx="407.746" cy="775.956" r="17.887" fill="#3f3d56"/>
  <circle cx="615.573" cy="396.076" r="11.073" fill="#3f3d56"/>
  <path d="M 462.031 639.676 L 195.883 639.676 L 138.294 451.439 L 521.339 451.439 L 520.99 452.547 L 462.031 639.676 Z M 197.143 637.972 L 460.782 637.972 L 519.016 453.143 L 140.597 453.143 L 197.143 637.972 Z" fill="#2f2e41"/>
  <polygon points="441.256 629.881 207.488 629.881 156.906 462.938 493.347 462.938 493.041 463.921 441.256 629.881" fill="#f2f2f2"/>
  <polygon points="526.111 434.623 524.464 434.186 535.705 391.817 601.094 391.817 601.094 393.521 537.016 393.521 526.111 434.623" fill="#2f2e41"/>
  <rect x="156.904" y="508.506" width="345.293" height="1.704" fill="#2f2e41"/>
  <rect x="176.105" y="571.266" width="306.319" height="1.704" fill="#2f2e41"/>
  <rect x="328.96" y="452.291" width="1.704" height="186.533" fill="#2f2e41"/>
  <rect x="385.557" y="570.797" width="186.929" height="1.704" transform="matrix(0.065417, -0.997858, 0.997858, 0.065417, -200.093262, 986.157532)" fill="#2f2e41"/>
  <rect x="334.457" y="478.185" width="1.704" height="186.929" transform="matrix(0.997883, -0.065037, 0.065037, 0.997883, -113.822693, -3.073776)" fill="#2f2e41"/>
  <path d="M 670.057 111.799 C 670.057 111.799 684.675 153.405 675.679 159.806 C 666.683 166.207 706.04 218.481 706.04 218.481 L 753.269 205.679 L 727.406 161.939 C 727.406 161.939 724.032 118.2 724.032 111.799 C 724.032 105.398 670.057 111.799 670.057 111.799 Z" fill="#a0616a"/>
  <path d="M 670.057 111.799 C 670.057 111.799 684.675 153.405 675.679 159.806 C 666.683 166.207 706.04 218.481 706.04 218.481 L 753.269 205.679 L 727.406 161.939 C 727.406 161.939 724.032 118.2 724.032 111.799 C 724.032 105.398 670.057 111.799 670.057 111.799 Z" opacity="0.1"/>
  <path d="M 645.52 408.377 C 645.52 408.377 641.252 461.718 645.52 489.456 C 649.787 517.193 656.188 594.005 656.188 594.005 C 656.188 594.005 656.188 739.093 679.658 741.227 C 703.128 743.36 720.198 745.494 722.331 736.96 C 724.465 728.425 711.663 724.158 718.064 719.89 C 724.465 715.623 726.598 700.687 718.064 683.618 C 709.529 666.549 718.064 493.723 718.064 493.723 L 758.603 602.539 C 758.603 602.539 762.871 692.153 767.138 704.955 C 771.405 717.757 762.871 741.227 777.806 743.36 C 792.742 745.494 809.811 732.692 818.346 728.425 C 826.88 724.158 805.544 724.158 809.811 722.024 C 814.078 719.89 826.88 713.489 822.613 711.356 C 818.346 709.222 814.078 606.807 814.078 606.807 C 814.078 606.807 802.343 388.107 787.408 379.572 C 772.472 371.038 762.871 385.738 762.871 385.738 L 645.52 408.377 Z" fill="#2f2e41"/>
  <path d="M 683.925 732.692 L 683.925 749.761 C 683.925 749.761 664.723 796.161 683.925 796.161 C 703.128 796.161 718.064 800.969 718.064 794.568 L 718.064 736.96 L 683.925 732.692 Z" fill="#2f2e41"/>
  <path d="M 809.811 732.662 L 809.811 749.731 C 809.811 749.731 829.014 796.131 809.811 796.131 C 790.608 796.131 775.673 800.939 775.673 794.538 L 775.673 736.929 L 809.811 732.662 Z" fill="#2f2e41"/>
  <circle cx="699.928" cy="104.331" r="38.406" fill="#a0616a"/>
  <path d="M 688.193 175.808 C 688.193 175.808 698.861 207.813 715.93 201.412 L 732.999 195.011 L 762.871 399.842 C 762.871 399.842 739.4 433.98 705.262 412.644 C 671.123 391.307 688.193 175.808 688.193 175.808 Z" fill="#6c63ff"/>
  <path d="M 718.064 169.407 L 727.665 149.138 C 727.665 149.138 784.207 175.808 792.742 184.343 C 801.276 192.878 801.276 205.679 801.276 205.679 L 786.341 259.021 C 786.341 259.021 790.608 376.372 790.608 380.639 C 790.608 384.907 805.544 408.377 794.875 399.842 C 784.207 391.307 782.074 382.773 773.539 395.575 C 765.004 408.377 745.801 423.312 745.801 423.312 L 718.064 169.407 Z" fill="#3f3d56"/>
  <path d="M 792.742 323.03 L 786.341 382.773 C 786.341 382.773 747.935 416.911 756.47 419.045 C 765.004 421.179 769.272 412.644 769.272 412.644 C 769.272 412.644 784.207 427.58 792.742 419.045 C 801.276 410.51 822.613 329.431 822.613 329.431 L 792.742 323.03 Z" fill="#a0616a"/>
  <path d="M 700.746 50.052 C 692.232 49.748 683.12 49.598 675.942 54.186 C 672.639 56.488 669.742 59.324 667.37 62.577 C 660.378 71.416 654.337 82.536 656.934 93.503 L 659.95 92.326 C 659.95 95.253 659.3 98.144 658.045 100.789 C 658.47 99.554 659.892 101.55 659.512 102.8 L 656.189 113.7 C 661.651 111.698 668.446 115.752 669.277 121.51 C 669.657 108.849 670.97 94.33 681.241 86.917 C 686.421 83.178 692.976 82.037 699.283 81.023 C 705.101 80.088 711.201 79.197 716.774 81.112 C 722.347 83.028 727.092 88.727 725.829 94.483 C 728.398 93.598 731.272 95.389 732.542 97.792 C 733.812 100.194 733.879 103.029 733.917 105.747 C 736.656 107.682 739.773 103.838 740.89 100.675 C 743.51 93.251 745.839 85.348 744.428 77.602 C 743.016 69.857 736.704 62.455 728.831 62.428 C 729.787 61.379 730.297 59.999 730.253 58.58 L 723.764 58.031 C 725.411 57.798 726.926 56.999 728.049 55.772 C 725.444 58.639 704.959 50.203 700.746 50.052 Z" fill="#2f2e41"/>
  <path d="M 698.861 163.006 C 698.861 163.006 681.492 145.985 675.241 147.028 C 668.99 148.071 660.455 163.006 660.455 163.006 C 660.455 163.006 609.247 180.076 611.381 197.145 C 613.515 214.214 636.985 297.427 636.985 297.427 C 636.985 297.427 656.188 397.708 639.119 408.377 C 622.049 419.045 720.198 446.782 722.331 433.98 C 724.465 421.179 728.732 293.159 722.331 273.956 C 715.93 254.753 698.861 163.006 698.861 163.006 Z" fill="#3f3d56"/>
  <path d="M 773.539 197.145 L 799.922 197.145 C 799.922 197.145 818.346 278.224 820.479 286.758 C 822.613 295.293 826.88 335.832 824.747 335.832 C 822.613 335.832 779.94 327.298 779.94 333.699 L 773.539 197.145 Z" fill="#3f3d56"/>
  <path d="M 772.646 397.923 L 671.646 397.923 C 661.79 352.583 660.966 308.776 671.646 266.923 L 772.646 266.923 C 756.347 308.023 755.328 351.53 772.646 397.923 Z" fill="#f2f2f2"/>
  <path d="M 630.584 342.233 L 660.455 355.035 C 660.455 355.035 718.064 363.57 718.064 340.1 C 718.064 316.63 660.455 329.431 660.455 329.431 L 641.251 323.291 L 630.584 342.233 Z" fill="#a0616a"/>
  <path d="M 636.985 184.343 L 611.381 190.744 L 592.178 303.828 C 592.178 303.828 585.777 333.699 596.446 335.832 C 607.114 337.966 636.985 355.035 636.985 355.035 C 636.985 355.035 641.252 323.03 649.787 323.03 L 628.45 305.961 L 641.252 231.283 L 636.985 184.343 Z" fill="#3f3d56"/>
</svg>